<svg width="96" height="81" viewBox="0 0 96 81" fill="none" xmlns="http://www.w3.org/2000/svg">
<path d="M90 12H93V18H90V12Z" fill="black"/>
<path d="M93 15H96V78H93V15Z" fill="black"/>
<path d="M3 81H93V78H3V81Z" fill="black"/>
<path d="M0 12H3V78H0V12Z" fill="#808080"/>
<path d="M3 9H6V12H3V9Z" fill="#808080"/>
<path d="M6 6H9V9H6V6Z" fill="#808080"/>
<path d="M9 3H12V6H9V3Z" fill="#808080"/>
<path d="M12 0H39V3H12V0Z" fill="#808080"/>
<path d="M48 12H90V15H48V12Z" fill="#808080"/>
<path d="M39 3H42V6H39V3Z" fill="#808080"/>
<path d="M45 9H48V12H45V9Z" fill="#808080"/>
<path d="M42 6H45V9H42V6Z" fill="#808080"/>
<path d="M90 18H93V78H90V18Z" fill="#808000"/>
<path d="M3 75H93V78H3V75Z" fill="#808000"/>
<path d="M3 75H6V18H3V75Z" fill="white"/>
<path d="M90 18H3V15H90V18Z" fill="white"/>
<path d="M39 6H12V3H39V6Z" fill="white"/>
<path d="M12 9H9V6H12V9Z" fill="white"/>
<path d="M9 12H6V9H9V12Z" fill="white"/>
<path d="M6 18H9V21H6V18Z" fill="#FFFF00"/>
<path d="M9 21H12V24H9V21Z" fill="#FFFF00"/>
<path d="M9 18H12V21H9V18Z" fill="#C0C0C0"/>
<path d="M6 21H9V24H6V21Z" fill="#C0C0C0"/>
<path d="M12 18H15V21H12V18Z" fill="#FFFF00"/>
<path d="M15 21H18V24H15V21Z" fill="#FFFF00"/>
<path d="M15 18H18V21H15V18Z" fill="#C0C0C0"/>
<path d="M12 21H15V24H12V21Z" fill="#C0C0C0"/>
<path d="M18 18H21V21H18V18Z" fill="#FFFF00"/>
<path d="M21 21H24V24H21V21Z" fill="#FFFF00"/>
<path d="M21 18H24V21H21V18Z" fill="#C0C0C0"/>
<path d="M18 21H21V24H18V21Z" fill="#C0C0C0"/>
<path d="M24 18H27V21H24V18Z" fill="#FFFF00"/>
<path d="M27 21H30V24H27V21Z" fill="#FFFF00"/>
<path d="M27 18H30V21H27V18Z" fill="#C0C0C0"/>
<path d="M24 21H27V24H24V21Z" fill="#C0C0C0"/>
<path d="M30 18H33V21H30V18Z" fill="#FFFF00"/>
<path d="M33 21H36V24H33V21Z" fill="#FFFF00"/>
<path d="M33 18H36V21H33V18Z" fill="#C0C0C0"/>
<path d="M30 21H33V24H30V21Z" fill="#C0C0C0"/>
<path d="M36 18H39V21H36V18Z" fill="#FFFF00"/>
<path d="M39 21H42V24H39V21Z" fill="#FFFF00"/>
<path d="M39 18H42V21H39V18Z" fill="#C0C0C0"/>
<path d="M36 21H39V24H36V21Z" fill="#C0C0C0"/>
<path d="M48 18H51V21H48V18Z" fill="#FFFF00"/>
<path d="M51 21H54V24H51V21Z" fill="#FFFF00"/>
<path d="M51 18H54V21H51V18Z" fill="#C0C0C0"/>
<path d="M48 21H51V24H48V21Z" fill="#C0C0C0"/>
<path d="M54 18H57V21H54V18Z" fill="#FFFF00"/>
<path d="M57 21H60V24H57V21Z" fill="#FFFF00"/>
<path d="M57 18H60V21H57V18Z" fill="#C0C0C0"/>
<path d="M54 21H57V24H54V21Z" fill="#C0C0C0"/>
<path d="M60 18H63V21H60V18Z" fill="#FFFF00"/>
<path d="M63 21H66V24H63V21Z" fill="#FFFF00"/>
<path d="M63 18H66V21H63V18Z" fill="#C0C0C0"/>
<path d="M60 21H63V24H60V21Z" fill="#C0C0C0"/>
<path d="M66 18H69V21H66V18Z" fill="#FFFF00"/>
<path d="M69 21H72V24H69V21Z" fill="#FFFF00"/>
<path d="M69 18H72V21H69V18Z" fill="#C0C0C0"/>
<path d="M66 21H69V24H66V21Z" fill="#C0C0C0"/>
<path d="M72 18H75V21H72V18Z" fill="#FFFF00"/>
<path d="M75 21H78V24H75V21Z" fill="#FFFF00"/>
<path d="M75 18H78V21H75V18Z" fill="#C0C0C0"/>
<path d="M72 21H75V24H72V21Z" fill="#C0C0C0"/>
<path d="M78 18H81V21H78V18Z" fill="#FFFF00"/>
<path d="M81 21H84V24H81V21Z" fill="#FFFF00"/>
<path d="M81 18H84V21H81V18Z" fill="#C0C0C0"/>
<path d="M78 21H81V24H78V21Z" fill="#C0C0C0"/>
<path d="M84 18H87V21H84V18Z" fill="#FFFF00"/>
<path d="M87 21H90V24H87V21Z" fill="#FFFF00"/>
<path d="M87 18H90V21H87V18Z" fill="#C0C0C0"/>
<path d="M84 21H87V24H84V21Z" fill="#C0C0C0"/>
<path d="M42 18H45V21H42V18Z" fill="#FFFF00"/>
<path d="M45 21H48V24H45V21Z" fill="#FFFF00"/>
<path d="M45 18H48V21H45V18Z" fill="#C0C0C0"/>
<path d="M42 21H45V24H42V21Z" fill="#C0C0C0"/>
<path d="M6 24H9V27H6V24Z" fill="#FFFF00"/>
<path d="M9 27H12V30H9V27Z" fill="#FFFF00"/>
<path d="M9 24H12V27H9V24Z" fill="#C0C0C0"/>
<path d="M6 27H9V30H6V27Z" fill="#C0C0C0"/>
<path d="M12 24H15V27H12V24Z" fill="#FFFF00"/>
<path d="M15 27H18V30H15V27Z" fill="#FFFF00"/>
<path d="M15 24H18V27H15V24Z" fill="#C0C0C0"/>
<path d="M12 27H15V30H12V27Z" fill="#C0C0C0"/>
<path d="M18 24H21V27H18V24Z" fill="#FFFF00"/>
<path d="M21 27H24V30H21V27Z" fill="#FFFF00"/>
<path d="M21 24H24V27H21V24Z" fill="#C0C0C0"/>
<path d="M18 27H21V30H18V27Z" fill="#C0C0C0"/>
<path d="M24 24H27V27H24V24Z" fill="#FFFF00"/>
<path d="M27 27H30V30H27V27Z" fill="#FFFF00"/>
<path d="M27 24H30V27H27V24Z" fill="#C0C0C0"/>
<path d="M24 27H27V30H24V27Z" fill="#C0C0C0"/>
<path d="M30 24H33V27H30V24Z" fill="#FFFF00"/>
<path d="M33 27H36V30H33V27Z" fill="#FFFF00"/>
<path d="M33 24H36V27H33V24Z" fill="#C0C0C0"/>
<path d="M30 27H33V30H30V27Z" fill="#C0C0C0"/>
<path d="M36 24H39V27H36V24Z" fill="#FFFF00"/>
<path d="M39 27H42V30H39V27Z" fill="#FFFF00"/>
<path d="M39 24H42V27H39V24Z" fill="#C0C0C0"/>
<path d="M36 27H39V30H36V27Z" fill="#C0C0C0"/>
<path d="M48 24H51V27H48V24Z" fill="#FFFF00"/>
<path d="M51 27H54V30H51V27Z" fill="#FFFF00"/>
<path d="M51 24H54V27H51V24Z" fill="#C0C0C0"/>
<path d="M48 27H51V30H48V27Z" fill="#C0C0C0"/>
<path d="M54 24H57V27H54V24Z" fill="#FFFF00"/>
<path d="M57 27H60V30H57V27Z" fill="#FFFF00"/>
<path d="M57 24H60V27H57V24Z" fill="#C0C0C0"/>
<path d="M54 27H57V30H54V27Z" fill="#C0C0C0"/>
<path d="M60 24H63V27H60V24Z" fill="#FFFF00"/>
<path d="M63 27H66V30H63V27Z" fill="#FFFF00"/>
<path d="M63 24H66V27H63V24Z" fill="#C0C0C0"/>
<path d="M60 27H63V30H60V27Z" fill="#C0C0C0"/>
<path d="M66 24H69V27H66V24Z" fill="#FFFF00"/>
<path d="M69 27H72V30H69V27Z" fill="#FFFF00"/>
<path d="M69 24H72V27H69V24Z" fill="#C0C0C0"/>
<path d="M66 27H69V30H66V27Z" fill="#C0C0C0"/>
<path d="M72 24H75V27H72V24Z" fill="#FFFF00"/>
<path d="M75 27H78V30H75V27Z" fill="#FFFF00"/>
<path d="M75 24H78V27H75V24Z" fill="#C0C0C0"/>
<path d="M72 27H75V30H72V27Z" fill="#C0C0C0"/>
<path d="M78 24H81V27H78V24Z" fill="#FFFF00"/>
<path d="M81 27H84V30H81V27Z" fill="#FFFF00"/>
<path d="M81 24H84V27H81V24Z" fill="#C0C0C0"/>
<path d="M78 27H81V30H78V27Z" fill="#C0C0C0"/>
<path d="M84 24H87V27H84V24Z" fill="#FFFF00"/>
<path d="M87 27H90V30H87V27Z" fill="#FFFF00"/>
<path d="M87 24H90V27H87V24Z" fill="#C0C0C0"/>
<path d="M84 27H87V30H84V27Z" fill="#C0C0C0"/>
<path d="M42 24H45V27H42V24Z" fill="#FFFF00"/>
<path d="M45 27H48V30H45V27Z" fill="#FFFF00"/>
<path d="M45 24H48V27H45V24Z" fill="#C0C0C0"/>
<path d="M42 27H45V30H42V27Z" fill="#C0C0C0"/>
<path d="M6 30H9V33H6V30Z" fill="#FFFF00"/>
<path d="M9 33H12V36H9V33Z" fill="#FFFF00"/>
<path d="M9 30H12V33H9V30Z" fill="#C0C0C0"/>
<path d="M6 33H9V36H6V33Z" fill="#C0C0C0"/>
<path d="M12 30H15V33H12V30Z" fill="#FFFF00"/>
<path d="M15 33H18V36H15V33Z" fill="#FFFF00"/>
<path d="M15 30H18V33H15V30Z" fill="#C0C0C0"/>
<path d="M12 33H15V36H12V33Z" fill="#C0C0C0"/>
<path d="M18 30H21V33H18V30Z" fill="#FFFF00"/>
<path d="M21 33H24V36H21V33Z" fill="#FFFF00"/>
<path d="M21 30H24V33H21V30Z" fill="#C0C0C0"/>
<path d="M18 33H21V36H18V33Z" fill="#C0C0C0"/>
<path d="M24 30H27V33H24V30Z" fill="#FFFF00"/>
<path d="M27 33H30V36H27V33Z" fill="#FFFF00"/>
<path d="M27 30H30V33H27V30Z" fill="#C0C0C0"/>
<path d="M24 33H27V36H24V33Z" fill="#C0C0C0"/>
<path d="M30 30H33V33H30V30Z" fill="#FFFF00"/>
<path d="M33 33H36V36H33V33Z" fill="#FFFF00"/>
<path d="M33 30H36V33H33V30Z" fill="#C0C0C0"/>
<path d="M30 33H33V36H30V33Z" fill="#C0C0C0"/>
<path d="M36 30H39V33H36V30Z" fill="#FFFF00"/>
<path d="M39 33H42V36H39V33Z" fill="#FFFF00"/>
<path d="M39 30H42V33H39V30Z" fill="#C0C0C0"/>
<path d="M36 33H39V36H36V33Z" fill="#C0C0C0"/>
<path d="M48 30H51V33H48V30Z" fill="#FFFF00"/>
<path d="M51 33H54V36H51V33Z" fill="#FFFF00"/>
<path d="M51 30H54V33H51V30Z" fill="#C0C0C0"/>
<path d="M48 33H51V36H48V33Z" fill="#C0C0C0"/>
<path d="M54 30H57V33H54V30Z" fill="#FFFF00"/>
<path d="M57 33H60V36H57V33Z" fill="#FFFF00"/>
<path d="M57 30H60V33H57V30Z" fill="#C0C0C0"/>
<path d="M54 33H57V36H54V33Z" fill="#C0C0C0"/>
<path d="M60 30H63V33H60V30Z" fill="#FFFF00"/>
<path d="M63 33H66V36H63V33Z" fill="#FFFF00"/>
<path d="M63 30H66V33H63V30Z" fill="#C0C0C0"/>
<path d="M60 33H63V36H60V33Z" fill="#C0C0C0"/>
<path d="M66 30H69V33H66V30Z" fill="#FFFF00"/>
<path d="M69 33H72V36H69V33Z" fill="#FFFF00"/>
<path d="M69 30H72V33H69V30Z" fill="#C0C0C0"/>
<path d="M66 33H69V36H66V33Z" fill="#C0C0C0"/>
<path d="M72 30H75V33H72V30Z" fill="#FFFF00"/>
<path d="M75 33H78V36H75V33Z" fill="#FFFF00"/>
<path d="M75 30H78V33H75V30Z" fill="#C0C0C0"/>
<path d="M72 33H75V36H72V33Z" fill="#C0C0C0"/>
<path d="M78 30H81V33H78V30Z" fill="#FFFF00"/>
<path d="M81 33H84V36H81V33Z" fill="#FFFF00"/>
<path d="M81 30H84V33H81V30Z" fill="#C0C0C0"/>
<path d="M78 33H81V36H78V33Z" fill="#C0C0C0"/>
<path d="M84 30H87V33H84V30Z" fill="#FFFF00"/>
<path d="M87 33H90V36H87V33Z" fill="#FFFF00"/>
<path d="M87 30H90V33H87V30Z" fill="#C0C0C0"/>
<path d="M84 33H87V36H84V33Z" fill="#C0C0C0"/>
<path d="M42 30H45V33H42V30Z" fill="#FFFF00"/>
<path d="M45 33H48V36H45V33Z" fill="#FFFF00"/>
<path d="M45 30H48V33H45V30Z" fill="#C0C0C0"/>
<path d="M42 33H45V36H42V33Z" fill="#C0C0C0"/>
<path d="M6 36H9V39H6V36Z" fill="#FFFF00"/>
<path d="M9 39H12V42H9V39Z" fill="#FFFF00"/>
<path d="M9 36H12V39H9V36Z" fill="#C0C0C0"/>
<path d="M6 39H9V42H6V39Z" fill="#C0C0C0"/>
<path d="M12 36H15V39H12V36Z" fill="#FFFF00"/>
<path d="M15 39H18V42H15V39Z" fill="#FFFF00"/>
<path d="M15 36H18V39H15V36Z" fill="#C0C0C0"/>
<path d="M12 39H15V42H12V39Z" fill="#C0C0C0"/>
<path d="M18 36H21V39H18V36Z" fill="#FFFF00"/>
<path d="M21 39H24V42H21V39Z" fill="#FFFF00"/>
<path d="M21 36H24V39H21V36Z" fill="#C0C0C0"/>
<path d="M18 39H21V42H18V39Z" fill="#C0C0C0"/>
<path d="M24 36H27V39H24V36Z" fill="#FFFF00"/>
<path d="M27 39H30V42H27V39Z" fill="#FFFF00"/>
<path d="M27 36H30V39H27V36Z" fill="#C0C0C0"/>
<path d="M24 39H27V42H24V39Z" fill="#C0C0C0"/>
<path d="M30 36H33V39H30V36Z" fill="#FFFF00"/>
<path d="M33 39H36V42H33V39Z" fill="#FFFF00"/>
<path d="M33 36H36V39H33V36Z" fill="#C0C0C0"/>
<path d="M30 39H33V42H30V39Z" fill="#C0C0C0"/>
<path d="M36 36H39V39H36V36Z" fill="#FFFF00"/>
<path d="M39 39H42V42H39V39Z" fill="#FFFF00"/>
<path d="M39 36H42V39H39V36Z" fill="#C0C0C0"/>
<path d="M36 39H39V42H36V39Z" fill="#C0C0C0"/>
<path d="M48 36H51V39H48V36Z" fill="#FFFF00"/>
<path d="M51 39H54V42H51V39Z" fill="#FFFF00"/>
<path d="M51 36H54V39H51V36Z" fill="#C0C0C0"/>
<path d="M48 39H51V42H48V39Z" fill="#C0C0C0"/>
<path d="M54 36H57V39H54V36Z" fill="#FFFF00"/>
<path d="M57 39H60V42H57V39Z" fill="#FFFF00"/>
<path d="M57 36H60V39H57V36Z" fill="#C0C0C0"/>
<path d="M54 39H57V42H54V39Z" fill="#C0C0C0"/>
<path d="M60 36H63V39H60V36Z" fill="#FFFF00"/>
<path d="M63 39H66V42H63V39Z" fill="#FFFF00"/>
<path d="M63 36H66V39H63V36Z" fill="#C0C0C0"/>
<path d="M60 39H63V42H60V39Z" fill="#C0C0C0"/>
<path d="M66 36H69V39H66V36Z" fill="#FFFF00"/>
<path d="M69 39H72V42H69V39Z" fill="#FFFF00"/>
<path d="M69 36H72V39H69V36Z" fill="#C0C0C0"/>
<path d="M66 39H69V42H66V39Z" fill="#C0C0C0"/>
<path d="M72 36H75V39H72V36Z" fill="#FFFF00"/>
<path d="M75 39H78V42H75V39Z" fill="#FFFF00"/>
<path d="M75 36H78V39H75V36Z" fill="#C0C0C0"/>
<path d="M72 39H75V42H72V39Z" fill="#C0C0C0"/>
<path d="M78 36H81V39H78V36Z" fill="#FFFF00"/>
<path d="M81 39H84V42H81V39Z" fill="#FFFF00"/>
<path d="M81 36H84V39H81V36Z" fill="#C0C0C0"/>
<path d="M78 39H81V42H78V39Z" fill="#C0C0C0"/>
<path d="M84 36H87V39H84V36Z" fill="#FFFF00"/>
<path d="M87 39H90V42H87V39Z" fill="#FFFF00"/>
<path d="M87 36H90V39H87V36Z" fill="#C0C0C0"/>
<path d="M84 39H87V42H84V39Z" fill="#C0C0C0"/>
<path d="M42 36H45V39H42V36Z" fill="#FFFF00"/>
<path d="M45 39H48V42H45V39Z" fill="#FFFF00"/>
<path d="M45 36H48V39H45V36Z" fill="#C0C0C0"/>
<path d="M42 39H45V42H42V39Z" fill="#C0C0C0"/>
<path d="M6 42H9V45H6V42Z" fill="#FFFF00"/>
<path d="M9 45H12V48H9V45Z" fill="#FFFF00"/>
<path d="M9 42H12V45H9V42Z" fill="#C0C0C0"/>
<path d="M6 45H9V48H6V45Z" fill="#C0C0C0"/>
<path d="M12 42H15V45H12V42Z" fill="#FFFF00"/>
<path d="M15 45H18V48H15V45Z" fill="#FFFF00"/>
<path d="M15 42H18V45H15V42Z" fill="#C0C0C0"/>
<path d="M12 45H15V48H12V45Z" fill="#C0C0C0"/>
<path d="M18 42H21V45H18V42Z" fill="#FFFF00"/>
<path d="M21 45H24V48H21V45Z" fill="#FFFF00"/>
<path d="M21 42H24V45H21V42Z" fill="#C0C0C0"/>
<path d="M18 45H21V48H18V45Z" fill="#C0C0C0"/>
<path d="M24 42H27V45H24V42Z" fill="#FFFF00"/>
<path d="M27 45H30V48H27V45Z" fill="#FFFF00"/>
<path d="M27 42H30V45H27V42Z" fill="#C0C0C0"/>
<path d="M24 45H27V48H24V45Z" fill="#C0C0C0"/>
<path d="M30 42H33V45H30V42Z" fill="#FFFF00"/>
<path d="M33 45H36V48H33V45Z" fill="#FFFF00"/>
<path d="M33 42H36V45H33V42Z" fill="#C0C0C0"/>
<path d="M30 45H33V48H30V45Z" fill="#C0C0C0"/>
<path d="M36 42H39V45H36V42Z" fill="#FFFF00"/>
<path d="M39 45H42V48H39V45Z" fill="#FFFF00"/>
<path d="M39 42H42V45H39V42Z" fill="#C0C0C0"/>
<path d="M36 45H39V48H36V45Z" fill="#C0C0C0"/>
<path d="M48 42H51V45H48V42Z" fill="#FFFF00"/>
<path d="M51 45H54V48H51V45Z" fill="#FFFF00"/>
<path d="M51 42H54V45H51V42Z" fill="#C0C0C0"/>
<path d="M48 45H51V48H48V45Z" fill="#C0C0C0"/>
<path d="M54 42H57V45H54V42Z" fill="#FFFF00"/>
<path d="M57 45H60V48H57V45Z" fill="#FFFF00"/>
<path d="M57 42H60V45H57V42Z" fill="#C0C0C0"/>
<path d="M54 45H57V48H54V45Z" fill="#C0C0C0"/>
<path d="M60 42H63V45H60V42Z" fill="#FFFF00"/>
<path d="M63 45H66V48H63V45Z" fill="#FFFF00"/>
<path d="M63 42H66V45H63V42Z" fill="#C0C0C0"/>
<path d="M60 45H63V48H60V45Z" fill="#C0C0C0"/>
<path d="M66 42H69V45H66V42Z" fill="#FFFF00"/>
<path d="M69 45H72V48H69V45Z" fill="#FFFF00"/>
<path d="M69 42H72V45H69V42Z" fill="#C0C0C0"/>
<path d="M66 45H69V48H66V45Z" fill="#C0C0C0"/>
<path d="M72 42H75V45H72V42Z" fill="#FFFF00"/>
<path d="M75 45H78V48H75V45Z" fill="#FFFF00"/>
<path d="M75 42H78V45H75V42Z" fill="#C0C0C0"/>
<path d="M72 45H75V48H72V45Z" fill="#C0C0C0"/>
<path d="M78 42H81V45H78V42Z" fill="#FFFF00"/>
<path d="M81 45H84V48H81V45Z" fill="#FFFF00"/>
<path d="M81 42H84V45H81V42Z" fill="#C0C0C0"/>
<path d="M78 45H81V48H78V45Z" fill="#C0C0C0"/>
<path d="M84 42H87V45H84V42Z" fill="#FFFF00"/>
<path d="M87 45H90V48H87V45Z" fill="#FFFF00"/>
<path d="M87 42H90V45H87V42Z" fill="#C0C0C0"/>
<path d="M84 45H87V48H84V45Z" fill="#C0C0C0"/>
<path d="M42 42H45V45H42V42Z" fill="#FFFF00"/>
<path d="M45 45H48V48H45V45Z" fill="#FFFF00"/>
<path d="M45 42H48V45H45V42Z" fill="#C0C0C0"/>
<path d="M42 45H45V48H42V45Z" fill="#C0C0C0"/>
<path d="M6 48H9V51H6V48Z" fill="#FFFF00"/>
<path d="M9 51H12V54H9V51Z" fill="#FFFF00"/>
<path d="M9 48H12V51H9V48Z" fill="#C0C0C0"/>
<path d="M6 51H9V54H6V51Z" fill="#C0C0C0"/>
<path d="M12 48H15V51H12V48Z" fill="#FFFF00"/>
<path d="M15 51H18V54H15V51Z" fill="#FFFF00"/>
<path d="M15 48H18V51H15V48Z" fill="#C0C0C0"/>
<path d="M12 51H15V54H12V51Z" fill="#C0C0C0"/>
<path d="M18 48H21V51H18V48Z" fill="#FFFF00"/>
<path d="M21 51H24V54H21V51Z" fill="#FFFF00"/>
<path d="M21 48H24V51H21V48Z" fill="#C0C0C0"/>
<path d="M18 51H21V54H18V51Z" fill="#C0C0C0"/>
<path d="M24 48H27V51H24V48Z" fill="#FFFF00"/>
<path d="M27 51H30V54H27V51Z" fill="#FFFF00"/>
<path d="M27 48H30V51H27V48Z" fill="#C0C0C0"/>
<path d="M24 51H27V54H24V51Z" fill="#C0C0C0"/>
<path d="M30 48H33V51H30V48Z" fill="#FFFF00"/>
<path d="M33 51H36V54H33V51Z" fill="#FFFF00"/>
<path d="M33 48H36V51H33V48Z" fill="#C0C0C0"/>
<path d="M30 51H33V54H30V51Z" fill="#C0C0C0"/>
<path d="M36 48H39V51H36V48Z" fill="#FFFF00"/>
<path d="M39 51H42V54H39V51Z" fill="#FFFF00"/>
<path d="M39 48H42V51H39V48Z" fill="#C0C0C0"/>
<path d="M36 51H39V54H36V51Z" fill="#C0C0C0"/>
<path d="M48 48H51V51H48V48Z" fill="#FFFF00"/>
<path d="M51 51H54V54H51V51Z" fill="#FFFF00"/>
<path d="M51 48H54V51H51V48Z" fill="#C0C0C0"/>
<path d="M48 51H51V54H48V51Z" fill="#C0C0C0"/>
<path d="M54 48H57V51H54V48Z" fill="#FFFF00"/>
<path d="M57 51H60V54H57V51Z" fill="#FFFF00"/>
<path d="M57 48H60V51H57V48Z" fill="#C0C0C0"/>
<path d="M54 51H57V54H54V51Z" fill="#C0C0C0"/>
<path d="M60 48H63V51H60V48Z" fill="#FFFF00"/>
<path d="M63 51H66V54H63V51Z" fill="#FFFF00"/>
<path d="M63 48H66V51H63V48Z" fill="#C0C0C0"/>
<path d="M60 51H63V54H60V51Z" fill="#C0C0C0"/>
<path d="M66 48H69V51H66V48Z" fill="#FFFF00"/>
<path d="M69 51H72V54H69V51Z" fill="#FFFF00"/>
<path d="M69 48H72V51H69V48Z" fill="#C0C0C0"/>
<path d="M66 51H69V54H66V51Z" fill="#C0C0C0"/>
<path d="M72 48H75V51H72V48Z" fill="#FFFF00"/>
<path d="M75 51H78V54H75V51Z" fill="#FFFF00"/>
<path d="M75 48H78V51H75V48Z" fill="#C0C0C0"/>
<path d="M72 51H75V54H72V51Z" fill="#C0C0C0"/>
<path d="M78 48H81V51H78V48Z" fill="#FFFF00"/>
<path d="M81 51H84V54H81V51Z" fill="#FFFF00"/>
<path d="M81 48H84V51H81V48Z" fill="#C0C0C0"/>
<path d="M78 51H81V54H78V51Z" fill="#C0C0C0"/>
<path d="M84 48H87V51H84V48Z" fill="#FFFF00"/>
<path d="M87 51H90V54H87V51Z" fill="#FFFF00"/>
<path d="M87 48H90V51H87V48Z" fill="#C0C0C0"/>
<path d="M84 51H87V54H84V51Z" fill="#C0C0C0"/>
<path d="M42 48H45V51H42V48Z" fill="#FFFF00"/>
<path d="M45 51H48V54H45V51Z" fill="#FFFF00"/>
<path d="M45 48H48V51H45V48Z" fill="#C0C0C0"/>
<path d="M42 51H45V54H42V51Z" fill="#C0C0C0"/>
<path d="M6 54H9V57H6V54Z" fill="#FFFF00"/>
<path d="M9 57H12V60H9V57Z" fill="#FFFF00"/>
<path d="M9 54H12V57H9V54Z" fill="#C0C0C0"/>
<path d="M6 57H9V60H6V57Z" fill="#C0C0C0"/>
<path d="M12 54H15V57H12V54Z" fill="#FFFF00"/>
<path d="M15 57H18V60H15V57Z" fill="#FFFF00"/>
<path d="M15 54H18V57H15V54Z" fill="#C0C0C0"/>
<path d="M12 57H15V60H12V57Z" fill="#C0C0C0"/>
<path d="M18 54H21V57H18V54Z" fill="#FFFF00"/>
<path d="M21 57H24V60H21V57Z" fill="#FFFF00"/>
<path d="M21 54H24V57H21V54Z" fill="#C0C0C0"/>
<path d="M18 57H21V60H18V57Z" fill="#C0C0C0"/>
<path d="M24 54H27V57H24V54Z" fill="#FFFF00"/>
<path d="M27 57H30V60H27V57Z" fill="#FFFF00"/>
<path d="M27 54H30V57H27V54Z" fill="#C0C0C0"/>
<path d="M24 57H27V60H24V57Z" fill="#C0C0C0"/>
<path d="M30 54H33V57H30V54Z" fill="#FFFF00"/>
<path d="M33 57H36V60H33V57Z" fill="#FFFF00"/>
<path d="M33 54H36V57H33V54Z" fill="#C0C0C0"/>
<path d="M30 57H33V60H30V57Z" fill="#C0C0C0"/>
<path d="M36 54H39V57H36V54Z" fill="#FFFF00"/>
<path d="M39 57H42V60H39V57Z" fill="#FFFF00"/>
<path d="M39 54H42V57H39V54Z" fill="#C0C0C0"/>
<path d="M36 57H39V60H36V57Z" fill="#C0C0C0"/>
<path d="M48 54H51V57H48V54Z" fill="#FFFF00"/>
<path d="M51 57H54V60H51V57Z" fill="#FFFF00"/>
<path d="M51 54H54V57H51V54Z" fill="#C0C0C0"/>
<path d="M48 57H51V60H48V57Z" fill="#C0C0C0"/>
<path d="M54 54H57V57H54V54Z" fill="#FFFF00"/>
<path d="M57 57H60V60H57V57Z" fill="#FFFF00"/>
<path d="M57 54H60V57H57V54Z" fill="#C0C0C0"/>
<path d="M54 57H57V60H54V57Z" fill="#C0C0C0"/>
<path d="M60 54H63V57H60V54Z" fill="#FFFF00"/>
<path d="M63 57H66V60H63V57Z" fill="#FFFF00"/>
<path d="M63 54H66V57H63V54Z" fill="#C0C0C0"/>
<path d="M60 57H63V60H60V57Z" fill="#C0C0C0"/>
<path d="M66 54H69V57H66V54Z" fill="#FFFF00"/>
<path d="M69 57H72V60H69V57Z" fill="#FFFF00"/>
<path d="M69 54H72V57H69V54Z" fill="#C0C0C0"/>
<path d="M66 57H69V60H66V57Z" fill="#C0C0C0"/>
<path d="M72 54H75V57H72V54Z" fill="#FFFF00"/>
<path d="M75 57H78V60H75V57Z" fill="#FFFF00"/>
<path d="M75 54H78V57H75V54Z" fill="#C0C0C0"/>
<path d="M72 57H75V60H72V57Z" fill="#C0C0C0"/>
<path d="M78 54H81V57H78V54Z" fill="#FFFF00"/>
<path d="M81 57H84V60H81V57Z" fill="#FFFF00"/>
<path d="M81 54H84V57H81V54Z" fill="#C0C0C0"/>
<path d="M78 57H81V60H78V57Z" fill="#C0C0C0"/>
<path d="M84 54H87V57H84V54Z" fill="#FFFF00"/>
<path d="M87 57H90V60H87V57Z" fill="#FFFF00"/>
<path d="M87 54H90V57H87V54Z" fill="#C0C0C0"/>
<path d="M84 57H87V60H84V57Z" fill="#C0C0C0"/>
<path d="M42 54H45V57H42V54Z" fill="#FFFF00"/>
<path d="M45 57H48V60H45V57Z" fill="#FFFF00"/>
<path d="M45 54H48V57H45V54Z" fill="#C0C0C0"/>
<path d="M42 57H45V60H42V57Z" fill="#C0C0C0"/>
<path d="M6 60H9V63H6V60Z" fill="#FFFF00"/>
<path d="M9 63H12V66H9V63Z" fill="#FFFF00"/>
<path d="M9 60H12V63H9V60Z" fill="#C0C0C0"/>
<path d="M6 63H9V66H6V63Z" fill="#C0C0C0"/>
<path d="M12 60H15V63H12V60Z" fill="#FFFF00"/>
<path d="M15 63H18V66H15V63Z" fill="#FFFF00"/>
<path d="M15 60H18V63H15V60Z" fill="#C0C0C0"/>
<path d="M12 63H15V66H12V63Z" fill="#C0C0C0"/>
<path d="M18 60H21V63H18V60Z" fill="#FFFF00"/>
<path d="M21 63H24V66H21V63Z" fill="#FFFF00"/>
<path d="M21 60H24V63H21V60Z" fill="#C0C0C0"/>
<path d="M18 63H21V66H18V63Z" fill="#C0C0C0"/>
<path d="M24 60H27V63H24V60Z" fill="#FFFF00"/>
<path d="M27 63H30V66H27V63Z" fill="#FFFF00"/>
<path d="M27 60H30V63H27V60Z" fill="#C0C0C0"/>
<path d="M24 63H27V66H24V63Z" fill="#C0C0C0"/>
<path d="M30 60H33V63H30V60Z" fill="#FFFF00"/>
<path d="M33 63H36V66H33V63Z" fill="#FFFF00"/>
<path d="M33 60H36V63H33V60Z" fill="#C0C0C0"/>
<path d="M30 63H33V66H30V63Z" fill="#C0C0C0"/>
<path d="M36 60H39V63H36V60Z" fill="#FFFF00"/>
<path d="M39 63H42V66H39V63Z" fill="#FFFF00"/>
<path d="M39 60H42V63H39V60Z" fill="#C0C0C0"/>
<path d="M36 63H39V66H36V63Z" fill="#C0C0C0"/>
<path d="M48 60H51V63H48V60Z" fill="#FFFF00"/>
<path d="M51 63H54V66H51V63Z" fill="#FFFF00"/>
<path d="M51 60H54V63H51V60Z" fill="#C0C0C0"/>
<path d="M48 63H51V66H48V63Z" fill="#C0C0C0"/>
<path d="M54 60H57V63H54V60Z" fill="#FFFF00"/>
<path d="M57 63H60V66H57V63Z" fill="#FFFF00"/>
<path d="M57 60H60V63H57V60Z" fill="#C0C0C0"/>
<path d="M54 63H57V66H54V63Z" fill="#C0C0C0"/>
<path d="M60 60H63V63H60V60Z" fill="#FFFF00"/>
<path d="M63 63H66V66H63V63Z" fill="#FFFF00"/>
<path d="M63 60H66V63H63V60Z" fill="#C0C0C0"/>
<path d="M60 63H63V66H60V63Z" fill="#C0C0C0"/>
<path d="M66 60H69V63H66V60Z" fill="#FFFF00"/>
<path d="M69 63H72V66H69V63Z" fill="#FFFF00"/>
<path d="M69 60H72V63H69V60Z" fill="#C0C0C0"/>
<path d="M66 63H69V66H66V63Z" fill="#C0C0C0"/>
<path d="M72 60H75V63H72V60Z" fill="#FFFF00"/>
<path d="M75 63H78V66H75V63Z" fill="#FFFF00"/>
<path d="M75 60H78V63H75V60Z" fill="#C0C0C0"/>
<path d="M72 63H75V66H72V63Z" fill="#C0C0C0"/>
<path d="M78 60H81V63H78V60Z" fill="#FFFF00"/>
<path d="M81 63H84V66H81V63Z" fill="#FFFF00"/>
<path d="M81 60H84V63H81V60Z" fill="#C0C0C0"/>
<path d="M78 63H81V66H78V63Z" fill="#C0C0C0"/>
<path d="M84 60H87V63H84V60Z" fill="#FFFF00"/>
<path d="M87 63H90V66H87V63Z" fill="#FFFF00"/>
<path d="M87 60H90V63H87V60Z" fill="#C0C0C0"/>
<path d="M84 63H87V66H84V63Z" fill="#C0C0C0"/>
<path d="M42 60H45V63H42V60Z" fill="#FFFF00"/>
<path d="M45 63H48V66H45V63Z" fill="#FFFF00"/>
<path d="M45 60H48V63H45V60Z" fill="#C0C0C0"/>
<path d="M42 63H45V66H42V63Z" fill="#C0C0C0"/>
<path d="M6 66H9V69H6V66Z" fill="#FFFF00"/>
<path d="M9 69H12V72H9V69Z" fill="#FFFF00"/>
<path d="M9 66H12V69H9V66Z" fill="#C0C0C0"/>
<path d="M6 69H9V72H6V69Z" fill="#C0C0C0"/>
<path d="M12 66H15V69H12V66Z" fill="#FFFF00"/>
<path d="M15 69H18V72H15V69Z" fill="#FFFF00"/>
<path d="M15 66H18V69H15V66Z" fill="#C0C0C0"/>
<path d="M12 69H15V72H12V69Z" fill="#C0C0C0"/>
<path d="M18 66H21V69H18V66Z" fill="#FFFF00"/>
<path d="M21 69H24V72H21V69Z" fill="#FFFF00"/>
<path d="M21 66H24V69H21V66Z" fill="#C0C0C0"/>
<path d="M18 69H21V72H18V69Z" fill="#C0C0C0"/>
<path d="M24 66H27V69H24V66Z" fill="#FFFF00"/>
<path d="M27 69H30V72H27V69Z" fill="#FFFF00"/>
<path d="M27 66H30V69H27V66Z" fill="#C0C0C0"/>
<path d="M24 69H27V72H24V69Z" fill="#C0C0C0"/>
<path d="M30 66H33V69H30V66Z" fill="#FFFF00"/>
<path d="M33 69H36V72H33V69Z" fill="#FFFF00"/>
<path d="M33 66H36V69H33V66Z" fill="#C0C0C0"/>
<path d="M30 69H33V72H30V69Z" fill="#C0C0C0"/>
<path d="M36 66H39V69H36V66Z" fill="#FFFF00"/>
<path d="M39 69H42V72H39V69Z" fill="#FFFF00"/>
<path d="M39 66H42V69H39V66Z" fill="#C0C0C0"/>
<path d="M36 69H39V72H36V69Z" fill="#C0C0C0"/>
<path d="M48 66H51V69H48V66Z" fill="#FFFF00"/>
<path d="M51 69H54V72H51V69Z" fill="#FFFF00"/>
<path d="M51 66H54V69H51V66Z" fill="#C0C0C0"/>
<path d="M48 69H51V72H48V69Z" fill="#C0C0C0"/>
<path d="M54 66H57V69H54V66Z" fill="#FFFF00"/>
<path d="M57 69H60V72H57V69Z" fill="#FFFF00"/>
<path d="M57 66H60V69H57V66Z" fill="#C0C0C0"/>
<path d="M54 69H57V72H54V69Z" fill="#C0C0C0"/>
<path d="M60 66H63V69H60V66Z" fill="#FFFF00"/>
<path d="M63 69H66V72H63V69Z" fill="#FFFF00"/>
<path d="M63 66H66V69H63V66Z" fill="#C0C0C0"/>
<path d="M60 69H63V72H60V69Z" fill="#C0C0C0"/>
<path d="M66 66H69V69H66V66Z" fill="#FFFF00"/>
<path d="M69 69H72V72H69V69Z" fill="#FFFF00"/>
<path d="M69 66H72V69H69V66Z" fill="#C0C0C0"/>
<path d="M66 69H69V72H66V69Z" fill="#C0C0C0"/>
<path d="M72 66H75V69H72V66Z" fill="#FFFF00"/>
<path d="M75 69H78V72H75V69Z" fill="#FFFF00"/>
<path d="M75 66H78V69H75V66Z" fill="#C0C0C0"/>
<path d="M72 69H75V72H72V69Z" fill="#C0C0C0"/>
<path d="M78 66H81V69H78V66Z" fill="#FFFF00"/>
<path d="M81 69H84V72H81V69Z" fill="#FFFF00"/>
<path d="M81 66H84V69H81V66Z" fill="#C0C0C0"/>
<path d="M78 69H81V72H78V69Z" fill="#C0C0C0"/>
<path d="M84 66H87V69H84V66Z" fill="#FFFF00"/>
<path d="M87 69H90V72H87V69Z" fill="#FFFF00"/>
<path d="M87 66H90V69H87V66Z" fill="#C0C0C0"/>
<path d="M84 69H87V72H84V69Z" fill="#C0C0C0"/>
<path d="M42 66H45V69H42V66Z" fill="#FFFF00"/>
<path d="M45 69H48V72H45V69Z" fill="#FFFF00"/>
<path d="M45 66H48V69H45V66Z" fill="#C0C0C0"/>
<path d="M42 69H45V72H42V69Z" fill="#C0C0C0"/>
<path d="M6 72H9V75H6V72Z" fill="#FFFF00"/>
<path d="M9 72H12V75H9V72Z" fill="#C0C0C0"/>
<path d="M12 72H15V75H12V72Z" fill="#FFFF00"/>
<path d="M15 72H18V75H15V72Z" fill="#C0C0C0"/>
<path d="M18 72H21V75H18V72Z" fill="#FFFF00"/>
<path d="M21 72H24V75H21V72Z" fill="#C0C0C0"/>
<path d="M24 72H27V75H24V72Z" fill="#FFFF00"/>
<path d="M27 72H30V75H27V72Z" fill="#C0C0C0"/>
<path d="M30 72H33V75H30V72Z" fill="#FFFF00"/>
<path d="M33 72H36V75H33V72Z" fill="#C0C0C0"/>
<path d="M36 72H39V75H36V72Z" fill="#FFFF00"/>
<path d="M39 72H42V75H39V72Z" fill="#C0C0C0"/>
<path d="M48 72H51V75H48V72Z" fill="#FFFF00"/>
<path d="M51 72H54V75H51V72Z" fill="#C0C0C0"/>
<path d="M54 72H57V75H54V72Z" fill="#FFFF00"/>
<path d="M57 72H60V75H57V72Z" fill="#C0C0C0"/>
<path d="M60 72H63V75H60V72Z" fill="#FFFF00"/>
<path d="M63 72H66V75H63V72Z" fill="#C0C0C0"/>
<path d="M66 72H69V75H66V72Z" fill="#FFFF00"/>
<path d="M69 72H72V75H69V72Z" fill="#C0C0C0"/>
<path d="M72 72H75V75H72V72Z" fill="#FFFF00"/>
<path d="M75 72H78V75H75V72Z" fill="#C0C0C0"/>
<path d="M78 72H81V75H78V72Z" fill="#FFFF00"/>
<path d="M81 72H84V75H81V72Z" fill="#C0C0C0"/>
<path d="M84 72H87V75H84V72Z" fill="#FFFF00"/>
<path d="M87 72H90V75H87V72Z" fill="#C0C0C0"/>
<path d="M42 72H45V75H42V72Z" fill="#FFFF00"/>
<path d="M45 72H48V75H45V72Z" fill="#C0C0C0"/>
<path d="M12 6H15V9H12V6Z" fill="#FFFF00"/>
<path d="M15 9H18V12H15V9Z" fill="#FFFF00"/>
<path d="M18 6H21V9H18V6Z" fill="#FFFF00"/>
<path d="M21 9H24V12H21V9Z" fill="#FFFF00"/>
<path d="M24 6H27V9H24V6Z" fill="#FFFF00"/>
<path d="M39 9H42V6H39V9Z" fill="#C0C0C0"/>
<path d="M42 12H45V9H42V12Z" fill="#C0C0C0"/>
<path d="M9 9H12V12H9V9Z" fill="#FFFF00"/>
<path d="M27 9H30V12H27V9Z" fill="#FFFF00"/>
<path d="M30 6H33V9H30V6Z" fill="#FFFF00"/>
<path d="M33 9H36V12H33V9Z" fill="#FFFF00"/>
<path d="M36 6H39V9H36V6Z" fill="#FFFF00"/>
<path d="M39 9H42V12H39V9Z" fill="#FFFF00"/>
<path d="M12 12H15V9H12V12Z" fill="#C0C0C0"/>
<path d="M15 9H18V6H15V9Z" fill="#C0C0C0"/>
<path d="M18 12H21V9H18V12Z" fill="#C0C0C0"/>
<path d="M21 9H24V6H21V9Z" fill="#C0C0C0"/>
<path d="M24 12H27V9H24V12Z" fill="#C0C0C0"/>
<path d="M27 9H30V6H27V9Z" fill="#C0C0C0"/>
<path d="M30 12H33V9H30V12Z" fill="#C0C0C0"/>
<path d="M33 9H36V6H33V9Z" fill="#C0C0C0"/>
<path d="M36 12H39V9H36V12Z" fill="#C0C0C0"/>
<path d="M3 12H48V15H3V12Z" fill="#C0C0C0"/>
</svg>
